<?xml version="1.0" encoding="UTF-8"?>
<svg id="katman_2" xmlns="http://www.w3.org/2000/svg" viewBox="0 0 355.64 42.06">
  <defs>
    <style>
      .cls-1 {
        fill: #ff0059;
      }
    </style>
  </defs>
  <g id="katman_1">
    <g>
      <path d="M31.99.5v40.37h-7.84l-.58-3.4c-2.42,2.65-5.57,3.98-9.46,3.98-2.65,0-5.01-.62-7.06-1.87-2.06-1.25-3.66-3-4.81-5.25s-1.73-4.82-1.73-7.7.58-5.45,1.73-7.7,2.76-4,4.81-5.25c2.06-1.25,4.41-1.87,7.06-1.87,3.5,0,6.44,1.1,8.82,3.29V.5h9.05ZM21.14,31.84c1.27-1.33,1.9-3.06,1.9-5.22s-.63-3.89-1.9-5.22c-1.27-1.33-2.9-1.99-4.9-1.99s-3.62.67-4.87,2.02c-1.25,1.35-1.87,3.08-1.87,5.19s.62,3.84,1.87,5.19c1.25,1.35,2.87,2.02,4.87,2.02s3.63-.66,4.9-1.99Z"/>
      <path d="M14.11,41.94c-2.73,0-5.2-.66-7.32-1.95-2.13-1.29-3.81-3.12-5-5.45-1.18-2.31-1.79-4.98-1.79-7.93s.6-5.62,1.79-7.93c1.19-2.32,2.87-4.15,5-5.45,2.13-1.29,4.59-1.95,7.32-1.95,3.21,0,6.01.91,8.32,2.71V0h10.05v41.37h-8.77l-.48-2.85c-2.41,2.28-5.48,3.43-9.13,3.43ZM14.11,12.3c-2.55,0-4.84.61-6.8,1.8-1.97,1.19-3.52,2.89-4.63,5.05-1.11,2.17-1.67,4.68-1.67,7.47s.56,5.3,1.67,7.47c1.1,2.16,2.66,3.85,4.63,5.05,1.97,1.2,4.26,1.8,6.8,1.8,3.72,0,6.78-1.28,9.09-3.82l.69-.76.68,4h6.92V1h-8.05v15.23l-.84-.77c-2.28-2.09-5.13-3.15-8.48-3.15ZM16.24,34.33c-2.14,0-3.9-.73-5.24-2.18-1.33-1.43-2.01-3.29-2.01-5.53s.68-4.1,2.01-5.53c1.34-1.45,3.1-2.18,5.24-2.18s3.9.72,5.26,2.14c1.35,1.42,2.04,3.29,2.04,5.56s-.69,4.15-2.04,5.56h0c-1.36,1.42-3.13,2.14-5.26,2.14ZM16.24,19.91c-1.87,0-3.35.61-4.51,1.86-1.16,1.24-1.74,2.88-1.74,4.85s.57,3.59,1.74,4.85c1.16,1.25,2.63,1.86,4.51,1.86s3.36-.6,4.54-1.84h0c1.19-1.24,1.76-2.83,1.76-4.87s-.59-3.65-1.76-4.87c-1.18-1.23-2.67-1.83-4.54-1.83Z"/>
    </g>
    <g>
      <path d="M68.72,12.38v28.49h-7.84l-.58-3.4c-2.42,2.65-5.57,3.98-9.46,3.98-2.65,0-5.01-.62-7.06-1.87-2.06-1.25-3.66-3-4.81-5.25s-1.73-4.82-1.73-7.7.58-5.45,1.73-7.7,2.76-4,4.81-5.25c2.06-1.25,4.41-1.87,7.06-1.87,1.92,0,3.69.34,5.31,1.01,1.61.67,3,1.64,4.15,2.91l.58-3.34h7.84ZM57.88,31.84c1.27-1.33,1.9-3.06,1.9-5.22s-.63-3.89-1.9-5.22c-1.27-1.33-2.9-1.99-4.9-1.99s-3.62.67-4.87,2.02c-1.25,1.35-1.87,3.08-1.87,5.19s.62,3.84,1.87,5.19c1.25,1.35,2.87,2.02,4.87,2.02s3.63-.66,4.9-1.99Z"/>
      <path d="M50.84,41.94c-2.73,0-5.2-.66-7.32-1.95-2.13-1.29-3.81-3.12-5-5.45-1.18-2.31-1.79-4.98-1.79-7.93s.6-5.62,1.79-7.93c1.19-2.32,2.87-4.15,5-5.45,2.13-1.29,4.59-1.95,7.32-1.95,1.98,0,3.83.35,5.5,1.05,1.36.57,2.58,1.35,3.63,2.33l.48-2.8h8.76v29.49h-8.77l-.48-2.85c-2.41,2.28-5.48,3.43-9.13,3.43ZM50.84,12.3c-2.55,0-4.84.61-6.8,1.8-1.97,1.19-3.52,2.89-4.63,5.05-1.11,2.17-1.67,4.68-1.67,7.47s.56,5.3,1.67,7.47c1.1,2.16,2.66,3.85,4.63,5.05,1.97,1.2,4.26,1.8,6.8,1.8,3.72,0,6.78-1.28,9.09-3.82l.69-.76.68,4h6.92V12.88h-6.92l-.68,3.94-.69-.76c-1.1-1.21-2.44-2.15-3.97-2.79-1.55-.64-3.27-.97-5.11-.97ZM52.98,34.33c-2.14,0-3.9-.73-5.24-2.18-1.33-1.43-2.01-3.29-2.01-5.53s.68-4.1,2.01-5.53c1.34-1.45,3.1-2.18,5.24-2.18s3.9.72,5.26,2.14c1.35,1.42,2.04,3.29,2.04,5.56s-.69,4.15-2.04,5.56h0c-1.36,1.42-3.13,2.14-5.26,2.14ZM52.98,19.91c-1.87,0-3.35.61-4.51,1.86-1.16,1.24-1.74,2.88-1.74,4.85s.57,3.59,1.74,4.85c1.16,1.25,2.63,1.86,4.51,1.86s3.36-.6,4.54-1.84h0c1.19-1.24,1.76-2.83,1.76-4.87s-.59-3.65-1.76-4.87c-1.18-1.23-2.67-1.83-4.54-1.83Z"/>
    </g>
    <g>
      <path d="M95.94,39.77c-2.23,1.11-4.75,1.67-7.55,1.67-3.11,0-5.57-.87-7.38-2.62-1.81-1.75-2.71-4.56-2.71-8.45v-10.78h-4.84v-7.21h4.84v-7.09l9-.98v8.07h7.09v7.21h-7.09v10.78c0,1.15.29,2.01.87,2.57.58.56,1.36.84,2.36.84,1.11,0,2.21-.27,3.29-.81l2.13,6.8Z"/>
      <path d="M88.38,41.94c-3.23,0-5.83-.93-7.73-2.76-1.9-1.84-2.86-4.8-2.86-8.81v-10.28h-4.84v-8.21h4.84v-7.04l10-1.09v8.13h7.09v8.21h-7.09v10.28c0,1.01.24,1.75.71,2.21.48.47,1.14.7,2.02.7,1.03,0,2.06-.25,3.06-.75l.52-.26,2.44,7.77-.38.19c-2.29,1.14-4.91,1.72-7.78,1.72ZM73.95,19.09h4.84v11.28c0,3.73.86,6.45,2.56,8.09,1.7,1.65,4.07,2.48,7.03,2.48,2.55,0,4.89-.48,6.95-1.43l-1.83-5.85c-.97.41-1.97.62-2.98.62-1.13,0-2.04-.33-2.71-.98-.68-.65-1.02-1.64-1.02-2.92v-11.28h7.09v-6.21h-7.09V4.86l-8,.87v7.14h-4.84v6.21Z"/>
    </g>
    <g>
      <path d="M129.67,12.38v28.49h-7.84l-.58-3.4c-2.42,2.65-5.57,3.98-9.46,3.98-2.65,0-5.01-.62-7.06-1.87-2.06-1.25-3.66-3-4.81-5.25s-1.73-4.82-1.73-7.7.58-5.45,1.73-7.7,2.76-4,4.81-5.25c2.06-1.25,4.41-1.87,7.06-1.87,1.92,0,3.69.34,5.31,1.01,1.61.67,3,1.64,4.15,2.91l.58-3.34h7.84ZM118.83,31.84c1.27-1.33,1.9-3.06,1.9-5.22s-.63-3.89-1.9-5.22c-1.27-1.33-2.9-1.99-4.9-1.99s-3.62.67-4.87,2.02c-1.25,1.35-1.87,3.08-1.87,5.19s.62,3.84,1.87,5.19c1.25,1.35,2.87,2.02,4.87,2.02s3.63-.66,4.9-1.99Z"/>
      <path d="M111.79,41.94c-2.73,0-5.2-.66-7.32-1.95-2.13-1.29-3.81-3.12-5-5.45-1.18-2.31-1.79-4.98-1.79-7.93s.6-5.62,1.79-7.93c1.19-2.32,2.87-4.15,5-5.45,2.13-1.29,4.59-1.95,7.32-1.95,1.98,0,3.83.35,5.5,1.05,1.36.57,2.58,1.35,3.63,2.33l.48-2.8h8.76v29.49h-8.77l-.48-2.85c-2.41,2.28-5.48,3.43-9.13,3.43ZM111.79,12.3c-2.55,0-4.84.61-6.8,1.8-1.97,1.19-3.52,2.89-4.63,5.05-1.11,2.17-1.67,4.68-1.67,7.47s.56,5.3,1.67,7.47c1.1,2.16,2.66,3.85,4.63,5.05,1.97,1.2,4.26,1.8,6.8,1.8,3.72,0,6.78-1.28,9.09-3.82l.69-.76.68,4h6.92V12.88h-6.92l-.68,3.94-.69-.76c-1.1-1.21-2.44-2.15-3.97-2.79-1.55-.64-3.27-.97-5.11-.97ZM113.93,34.33c-2.14,0-3.9-.73-5.24-2.18-1.33-1.43-2.01-3.29-2.01-5.53s.68-4.1,2.01-5.53c1.34-1.45,3.1-2.18,5.24-2.18s3.9.72,5.26,2.14c1.35,1.42,2.04,3.29,2.04,5.56s-.69,4.15-2.04,5.56h0c-1.36,1.42-3.13,2.14-5.26,2.14ZM113.93,19.91c-1.87,0-3.35.61-4.51,1.86-1.16,1.24-1.74,2.88-1.74,4.85s.57,3.59,1.74,4.85c1.16,1.25,2.63,1.86,4.51,1.86s3.36-.6,4.54-1.84h0c1.19-1.24,1.76-2.83,1.76-4.87s-.59-3.65-1.76-4.87c-1.18-1.23-2.67-1.83-4.54-1.83Z"/>
    </g>
    <g>
      <path class="cls-1" d="M162.57,15.26c2.06,2.34,3.08,5.52,3.08,9.51v16.09h-9.05v-15.57c0-1.84-.45-3.29-1.36-4.32-.9-1.04-2.16-1.56-3.78-1.56-1.77,0-3.2.6-4.3,1.79s-1.64,2.75-1.64,4.67v14.99h-9.05V.5h9.05v14.99c2.19-2.5,5.09-3.75,8.71-3.75s6.28,1.17,8.33,3.52Z"/>
      <path class="cls-1" d="M166.15,41.37h-10.05v-16.07c0-1.71-.41-3.06-1.23-4-.81-.93-1.92-1.39-3.4-1.39-1.64,0-2.92.53-3.93,1.63-1,1.09-1.51,2.55-1.51,4.33v15.49h-10.05V0h10.05v14.26c2.17-2,4.92-3.02,8.21-3.02,3.63,0,6.56,1.24,8.71,3.69h0c2.13,2.43,3.21,5.74,3.21,9.84v16.59ZM157.1,40.37h8.05v-15.59c0-3.85-1-6.94-2.96-9.18h0c-1.95-2.22-4.63-3.35-7.96-3.35s-6.25,1.2-8.33,3.58l-.88,1V1h-8.05v39.37h8.05v-14.49c0-2.04.6-3.73,1.77-5.01,1.19-1.29,2.76-1.95,4.66-1.95,1.76,0,3.15.58,4.15,1.73.98,1.13,1.48,2.69,1.48,4.65v15.07Z"/>
    </g>
    <g>
      <path class="cls-1" d="M200.71,12.38v28.49h-7.84l-.58-3.29c-1.08,1.27-2.39,2.24-3.95,2.91s-3.26,1.01-5.1,1.01c-3.5,0-6.29-1.15-8.36-3.46-2.08-2.31-3.11-5.5-3.11-9.57V12.38h9.05v15.57c0,1.84.45,3.29,1.35,4.32.9,1.04,2.14,1.56,3.72,1.56,1.73,0,3.12-.61,4.18-1.82,1.06-1.21,1.59-2.78,1.59-4.7v-14.94h9.05Z"/>
      <path class="cls-1" d="M183.24,42c-3.63,0-6.57-1.22-8.73-3.63-2.15-2.39-3.24-5.72-3.24-9.91V11.88h10.05v16.07c0,1.71.41,3.06,1.23,4,.81.93,1.9,1.39,3.34,1.39,1.59,0,2.84-.54,3.8-1.65.97-1.11,1.46-2.58,1.46-4.37v-15.44h10.05v29.49h-8.76l-.48-2.71c-.98.96-2.13,1.74-3.43,2.29-1.61.7-3.4,1.05-5.3,1.05ZM172.27,12.88v15.59c0,3.93,1,7.04,2.99,9.24,1.97,2.19,4.66,3.29,7.99,3.29,1.77,0,3.42-.33,4.91-.97,1.48-.64,2.74-1.57,3.77-2.78l.69-.81.69,3.92h6.92V12.88h-8.05v14.44c0,2.04-.58,3.73-1.71,5.03-1.15,1.32-2.69,1.99-4.56,1.99-1.72,0-3.1-.58-4.1-1.73-.98-1.13-1.48-2.69-1.48-4.65v-15.07h-8.05Z"/>
    </g>
    <g>
      <path class="cls-1" d="M250.77,14.92c2.08,2.12,3.11,5.02,3.11,8.71v17.24h-9.05v-16.09c0-1.69-.39-3.01-1.18-3.95-.79-.94-1.89-1.41-3.32-1.41-1.58,0-2.83.54-3.75,1.62s-1.38,2.5-1.38,4.27v15.57h-9v-16.09c0-1.69-.38-3.01-1.15-3.95-.77-.94-1.87-1.41-3.29-1.41-1.58,0-2.83.54-3.78,1.62s-1.41,2.5-1.41,4.27v15.57h-9.05V12.38h7.84l.52,3.17c1-1.23,2.2-2.17,3.6-2.83,1.4-.65,2.91-.98,4.53-.98,1.85,0,3.5.39,4.96,1.18,1.46.79,2.61,1.87,3.46,3.26,2.31-2.96,5.57-4.44,9.8-4.44,3.61,0,6.46,1.06,8.53,3.17Z"/>
      <path class="cls-1" d="M254.38,41.37h-10.05v-16.59c0-1.56-.36-2.78-1.07-3.63-.7-.83-1.65-1.23-2.93-1.23-1.44,0-2.54.47-3.37,1.44-.84.98-1.26,2.3-1.26,3.94v16.07h-10v-16.59c0-1.56-.35-2.79-1.04-3.63-.68-.83-1.62-1.23-2.9-1.23-1.44,0-2.55.47-3.4,1.44-.85.98-1.29,2.3-1.29,3.94v16.07h-10.05V11.88h8.77l.42,2.56c.89-.91,1.92-1.63,3.07-2.17,1.46-.68,3.06-1.03,4.74-1.03,1.92,0,3.67.42,5.2,1.24,1.32.71,2.42,1.67,3.27,2.86,2.37-2.72,5.65-4.1,9.76-4.1,3.74,0,6.73,1.12,8.89,3.32h0c2.16,2.2,3.26,5.25,3.26,9.06v17.74ZM245.33,40.37h8.05v-16.74c0-3.54-1-6.35-2.97-8.36h0c-1.97-2-4.72-3.02-8.18-3.02-4.05,0-7.21,1.43-9.41,4.25l-.44.57-.38-.62c-.79-1.3-1.9-2.34-3.27-3.08-1.38-.75-2.97-1.12-4.72-1.12-1.53,0-2.99.31-4.32.93s-2.48,1.52-3.43,2.69l-.7.86-.63-3.85h-6.92v27.49h8.05v-15.07c0-1.89.52-3.43,1.54-4.6,1.04-1.19,2.44-1.79,4.15-1.79,1.57,0,2.81.54,3.67,1.6.84,1.03,1.27,2.47,1.27,4.27v15.59h8v-15.07c0-1.88.51-3.43,1.5-4.59,1.02-1.19,2.41-1.79,4.13-1.79,1.57,0,2.81.54,3.7,1.59.86,1.03,1.3,2.47,1.3,4.27v15.59Z"/>
    </g>
    <g>
      <path class="cls-1" d="M285.31,13.68c2.08,1.25,3.69,3,4.84,5.25s1.73,4.82,1.73,7.7-.58,5.45-1.73,7.7-2.77,4-4.84,5.25c-2.08,1.25-4.44,1.87-7.09,1.87-3.88,0-7.04-1.33-9.46-3.98l-.58,3.4h-7.84V.5h9.05v14.59c2.38-2.19,5.32-3.29,8.82-3.29,2.65,0,5.02.62,7.09,1.87ZM280.98,31.84c1.27-1.33,1.9-3.06,1.9-5.22s-.63-3.89-1.9-5.22c-1.27-1.33-2.9-1.99-4.9-1.99s-3.62.67-4.87,2.02c-1.25,1.35-1.87,3.08-1.87,5.19s.62,3.84,1.87,5.19c1.25,1.35,2.87,2.02,4.87,2.02s3.63-.66,4.9-1.99Z"/>
      <path class="cls-1" d="M278.22,41.94c-3.65,0-6.71-1.15-9.13-3.43l-.48,2.85h-8.77V0h10.05v14.01c2.31-1.8,5.11-2.71,8.32-2.71,2.73,0,5.21.65,7.35,1.95h0c2.15,1.29,3.84,3.13,5.03,5.45,1.18,2.31,1.78,4.98,1.78,7.93s-.6,5.62-1.78,7.93c-1.19,2.32-2.88,4.15-5.03,5.45-2.14,1.29-4.62,1.95-7.35,1.95ZM268.44,36.37l.69.76c2.31,2.53,5.37,3.82,9.09,3.82,2.55,0,4.85-.61,6.84-1.8,1.99-1.19,3.55-2.89,4.66-5.05,1.11-2.17,1.67-4.68,1.67-7.47s-.56-5.3-1.67-7.47c-1.1-2.15-2.67-3.85-4.66-5.05h0c-1.99-1.2-4.29-1.8-6.84-1.8-3.35,0-6.21,1.06-8.48,3.15l-.84.77V1h-8.05v39.37h6.92l.68-4ZM276.08,34.33c-2.14,0-3.9-.73-5.24-2.18-1.33-1.43-2.01-3.29-2.01-5.53s.68-4.1,2.01-5.53c1.34-1.45,3.1-2.18,5.24-2.18s3.9.72,5.26,2.14c1.35,1.42,2.04,3.29,2.04,5.56s-.69,4.15-2.04,5.56h0c-1.36,1.42-3.13,2.14-5.26,2.14ZM276.08,19.91c-1.87,0-3.35.61-4.51,1.86-1.16,1.24-1.74,2.88-1.74,4.85s.57,3.59,1.74,4.85c1.16,1.25,2.64,1.86,4.51,1.86s3.36-.6,4.54-1.84h0c1.19-1.24,1.76-2.83,1.76-4.87s-.59-3.65-1.76-4.87c-1.18-1.23-2.67-1.83-4.54-1.83Z"/>
    </g>
    <g>
      <path class="cls-1" d="M297.01.5h9.05v40.37h-9.05V.5Z"/>
      <path class="cls-1" d="M306.57,41.37h-10.05V0h10.05v41.37ZM297.51,40.37h8.05V1h-8.05v39.37Z"/>
    </g>
    <g>
      <path class="cls-1" d="M334.67,13.5c2.27,1.17,4.01,2.83,5.22,4.96s1.82,4.62,1.82,7.47c0,.92-.1,2.06-.29,3.4h-20.93c.27,1.46,1.06,2.64,2.36,3.55,1.31.9,2.98,1.36,5.02,1.36,1.42,0,2.81-.21,4.15-.63,1.35-.42,2.5-1.02,3.46-1.79l4.73,5.07c-1.62,1.5-3.53,2.65-5.74,3.46-2.21.81-4.57,1.21-7.06,1.21-3.31,0-6.17-.61-8.59-1.82s-4.29-2.93-5.59-5.16c-1.31-2.23-1.96-4.86-1.96-7.9s.64-5.52,1.93-7.78c1.29-2.27,3.08-4.03,5.39-5.28s4.98-1.87,8.02-1.87,5.8.59,8.07,1.76ZM322.47,20.28c-1.13.92-1.78,2.21-1.93,3.86h12.57c-.12-1.65-.72-2.94-1.82-3.86s-2.57-1.38-4.41-1.38-3.28.46-4.41,1.38Z"/>
      <path class="cls-1" d="M327.4,42.06c-3.37,0-6.34-.63-8.82-1.87s-4.45-3.05-5.8-5.36c-1.35-2.29-2.03-5.04-2.03-8.15s.67-5.7,2-8.03c1.33-2.34,3.21-4.18,5.59-5.47,2.37-1.28,5.15-1.93,8.25-1.93s5.97.61,8.3,1.81h0c2.35,1.21,4.17,2.95,5.42,5.16,1.25,2.2,1.88,4.8,1.88,7.71,0,.94-.1,2.11-.29,3.47l-.06.43h-20.73c.33,1.06.99,1.93,2.01,2.63,1.21.84,2.81,1.27,4.73,1.27,1.37,0,2.71-.21,4-.61,1.28-.4,2.39-.97,3.3-1.7l.36-.29,5.39,5.78-.37.34c-1.66,1.54-3.64,2.74-5.91,3.56-2.25.82-4.69,1.24-7.23,1.24ZM326.6,12.25c-2.94,0-5.56.61-7.78,1.81-2.21,1.2-3.96,2.91-5.19,5.08-1.24,2.18-1.87,4.71-1.87,7.54s.64,5.51,1.89,7.65c1.25,2.13,3.06,3.8,5.39,4.97,2.34,1.17,5.16,1.76,8.37,1.76,2.43,0,4.75-.4,6.89-1.18,1.97-.72,3.72-1.73,5.2-3.02l-4.07-4.37c-.93.67-2.02,1.21-3.25,1.59-1.39.44-2.83.66-4.3.66-2.13,0-3.92-.49-5.3-1.44-1.42-.98-2.28-2.28-2.57-3.87l-.11-.59h21.1c.15-1.14.22-2.11.22-2.9,0-2.74-.59-5.17-1.75-7.22-1.16-2.04-2.84-3.64-5.01-4.76-2.19-1.13-4.82-1.7-7.84-1.7ZM333.65,24.64h-13.65l.05-.55c.16-1.78.88-3.2,2.11-4.21h0c1.22-.99,2.81-1.5,4.73-1.5s3.55.5,4.73,1.5c1.2,1.01,1.87,2.43,1.99,4.21l.04.54ZM321.11,23.64h11.44c-.19-1.26-.71-2.24-1.58-2.98-1-.84-2.37-1.27-4.09-1.27s-3.06.43-4.1,1.27h0c-.91.74-1.46,1.72-1.68,2.98Z"/>
    </g>
    <g>
      <path class="cls-1" d="M346.17,40.06c-.98-.92-1.47-2.09-1.47-3.52s.49-2.59,1.47-3.52,2.24-1.38,3.78-1.38,2.74.46,3.72,1.38c.98.92,1.47,2.1,1.47,3.52s-.49,2.59-1.47,3.52c-.98.92-2.22,1.38-3.72,1.38s-2.8-.46-3.78-1.38Z"/>
      <path class="cls-1" d="M349.95,41.94c-1.66,0-3.05-.51-4.12-1.52-1.08-1.02-1.63-2.32-1.63-3.88s.55-2.87,1.63-3.88c1.07-1.01,2.46-1.52,4.12-1.52s2.99.51,4.06,1.52c1.08,1.02,1.63,2.32,1.63,3.88s-.55,2.87-1.63,3.88c-1.07,1.01-2.44,1.52-4.06,1.52ZM349.95,32.14c-1.42,0-2.54.41-3.43,1.25-.88.83-1.31,1.86-1.31,3.15s.43,2.32,1.31,3.15c.89.84,2.02,1.25,3.43,1.25s2.48-.41,3.38-1.25c.88-.83,1.31-1.86,1.31-3.15s-.43-2.32-1.31-3.15c-.89-.84-2-1.25-3.38-1.25Z"/>
    </g>
  </g>
</svg>